<?xml version="1.0" standalone="no"?>
<!DOCTYPE svg PUBLIC "-//W3C//DTD SVG 20010904//EN"
 "http://www.w3.org/TR/2001/REC-SVG-20010904/DTD/svg10.dtd">
<svg version="1.0" xmlns="http://www.w3.org/2000/svg"
 width="512.000000pt" height="512.000000pt" viewBox="0 0 512.000000 512.000000"
 preserveAspectRatio="xMidYMid meet">
<metadata>
Created by potrace 1.16, written by Peter Selinger 2001-2019
</metadata>
<g transform="translate(0.000000,512.000000) scale(0.100000,-0.100000)"
fill="#000000" stroke="none">
<path d="M2465 4541 c-209 -95 -138 -412 92 -411 219 1 296 305 104 407 -55
29 -138 31 -196 4z"/>
<path d="M2041 3386 c-52 -29 -50 -8 -51 -793 l0 -732 24 -28 c21 -24 31 -28
78 -27 50 0 71 10 366 177 494 279 854 487 891 515 66 49 74 128 17 181 -22
21 -577 350 -1007 597 -228 131 -260 142 -318 110z"/>
<path d="M2470 1079 c-214 -97 -163 -404 69 -417 138 -8 235 82 236 219 0 161
-159 264 -305 198z"/>
</g>
</svg>
