<?xml version="1.0" standalone="no"?>
<!DOCTYPE svg PUBLIC "-//W3C//DTD SVG 20010904//EN"
 "http://www.w3.org/TR/2001/REC-SVG-20010904/DTD/svg10.dtd">
<svg version="1.0" xmlns="http://www.w3.org/2000/svg"
 width="512.000000pt" height="512.000000pt" viewBox="0 0 512.000000 512.000000"
 preserveAspectRatio="xMidYMid meet">
<metadata>
Created by potrace 1.16, written by Peter Selinger 2001-2019
</metadata>
<g transform="translate(0.000000,512.000000) scale(0.100000,-0.100000)"
fill="#000000" stroke="none">
<path d="M1274 2690 c-51 -20 -54 -37 -54 -291 0 -224 1 -238 21 -263 l20 -26
1297 0 c713 0 1302 4 1308 8 30 20 34 55 34 286 0 234 0 235 -24 263 l-24 28
-1279 2 c-707 1 -1288 -2 -1299 -7z"/>
<path d="M1249 1991 c-24 -19 -24 -21 -27 -257 -3 -255 1 -283 44 -303 36 -16
2556 -16 2587 1 45 24 46 31 47 286 l0 243 -25 24 -24 25 -1289 0 c-1255 0
-1290 -1 -1313 -19z"/>
<path d="M1249 1311 l-24 -19 0 -257 0 -257 24 -19 c23 -18 58 -19 1313 -19
l1289 0 24 25 25 24 0 246 0 246 -25 24 -24 25 -1289 0 c-1255 0 -1290 -1
-1313 -19z"/>
</g>
</svg>
